<svg width="800" height="800" xmlns="http://www.w3.org/2000/svg" version="1.1"> <polygon points="179,396 446.9972950402396,396 446.9972950402396,644.9205159434141 179,644.9205159434141 "  style="stroke:#000000;fill:#c0c0c0;stroke-width:2;stroke-linecap:butt;stroke-linejoin:miter;"  /><text y="500.63134"  transform="rotate(0 312.99866 ,506.63134)"  font-family="Arial"  font-size="12"  fill=" #000000"  text-anchor="middle" ><tspan x="312.99866" dy="12"></tspan></text><polygon points="89,139 452.0274683934625,139 452.0274683934625,285.934465726894 89,285.934465726894 "  style="stroke:#000000;fill:#c0c0c0;stroke-width:2;stroke-linecap:butt;stroke-linejoin:miter;"  /><text y="206.46725"  transform="rotate(0 270.51376 ,212.46725)"  font-family="Arial"  font-size="12"  fill=" #000000"  text-anchor="middle" ><tspan x="270.51376" dy="12"></tspan></text><polygon points="292,35 362,35 362,80 292,80 "  style="stroke:#000000;fill:#ffffff;stroke-width:2;stroke-linecap:butt;stroke-linejoin:miter;"  /><text y="49"  transform="rotate(0 327 ,55)"  font-family="Arial"  font-size="12"  fill=" #000000"  text-anchor="middle" ><tspan x="327" dy="12">Builder</tspan></text><polygon points="449.3032915402952,35 554.9043665147146,35 554.9043665147146,80 449.3032915402952,80 "  style="stroke:#000000;fill:#ffffff;stroke-width:2;stroke-linecap:butt;stroke-linejoin:miter;"  /><text y="49"  transform="rotate(0 502.10383 ,55)"  font-family="Arial"  font-size="12"  fill=" #000000"  text-anchor="middle" ><tspan x="502.10383" dy="12">Builder Property</tspan></text><polygon points="271,161 341,161 341,192.93560192321434 271,192.93560192321434 "  style="stroke:#000000;fill:#ffffff;stroke-width:2;stroke-linecap:butt;stroke-linejoin:miter;"  /><text y="170.96781"  transform="rotate(0 306 ,176.96781)"  font-family="Arial"  font-size="12"  fill=" #000000"  text-anchor="middle" ><tspan x="306" dy="12">Primitives</tspan></text><polygon points="261.93415485724364,236 367.90464091074847,236 367.90464091074847,265.6802290579531 261.93415485724364,265.6802290579531 "  style="stroke:#000000;fill:#ffffff;stroke-width:2;stroke-linecap:butt;stroke-linejoin:miter;"  /><text y="243.19123"  transform="rotate(0 314.91939 ,249.19123)"  font-family="Arial"  font-size="12"  fill=" #000000"  text-anchor="middle" ><tspan x="314.91939" dy="12">ConnectionPoint</tspan></text><polygon points="252.02333682180267,402 386.07470326100633,402 386.07470326100633,463.83513394421624 252.02333682180267,463.83513394421624 "  style="stroke:#000000;fill:#ffffff;stroke-width:2;stroke-linecap:butt;stroke-linejoin:miter;"  /><text y="423.48227"  transform="rotate(0 319.04903 ,429.48227)"  font-family="Arial"  font-size="12"  fill=" #000000"  text-anchor="middle" ><tspan x="319.04903" dy="12">Connection Point</tspan></text><polygon points="285,332 355,332 355,362.0956702947444 285,362.0956702947444 "  style="stroke:#000000;fill:#ffffff;stroke-width:2;stroke-linecap:butt;stroke-linejoin:miter;"  /><text y="339.37583"  transform="rotate(0 320 ,345.37583)"  font-family="Arial"  font-size="12"  fill=" #000000"  text-anchor="middle" ><tspan x="320" dy="12">Glue</tspan></text><polygon points="298.0365853658536,440 379.21648124332296,440 379.21648124332296,460.6668927613938 298.0365853658536,460.6668927613938 "  style="stroke:#000000;fill:#ffffff;stroke-width:2;stroke-linecap:butt;stroke-linejoin:miter;"  /><text y="443.18528"  transform="rotate(0 338.62652 ,449.18528)"  font-family="Arial"  font-size="12"  fill=" #000000"  text-anchor="middle" ><tspan x="338.62652" dy="12">Turning point</tspan></text><polygon points="262.95981441975107,493 366.8854355896459,493 366.8854355896459,525.0710159122298 262.95981441975107,525.0710159122298 "  style="stroke:#000000;fill:#ffffff;stroke-width:2;stroke-linecap:butt;stroke-linejoin:miter;"  /><text y="501.25377"  transform="rotate(0 314.92261 ,507.25377)"  font-family="Arial"  font-size="12"  fill=" #000000"  text-anchor="middle" ><tspan x="314.92261" dy="12">Turning Point</tspan></text><polygon points="567,247 637,247 637,292 567,292 "  style="stroke:#000000;fill:#ffffff;stroke-width:2;stroke-linecap:butt;stroke-linejoin:miter;"  /><text y="253.5"  transform="rotate(0 602 ,267)"  font-family="Arial"  font-size="12"  fill=" #000000"  text-anchor="middle" ><tspan x="602" dy="12">Handle</tspan><tspan x="602" dy="15">     action()</tspan></text><polygon points="255.07561631106512,560 390.8888073859258,560 390.8888073859258,629.8770764119602 255.07561631106512,629.8770764119602 "  style="stroke:#000000;fill:#ffffff;stroke-width:2;stroke-linecap:butt;stroke-linejoin:miter;"  /><text y="585.05647"  transform="rotate(0 322.98221 ,591.05647)"  font-family="Arial"  font-size="12"  fill=" #000000"  text-anchor="middle" ><tspan x="322.98221" dy="12">ConnectionPoint</tspan></text><polygon points="310,603 388.11415164018376,603 388.11415164018376,626.6759017050183 310,626.6759017050183 "  style="stroke:#000000;fill:#ffffff;stroke-width:2;stroke-linecap:butt;stroke-linejoin:miter;"  /><text y="607.52262"  transform="rotate(0 349.05707 ,613.52262)"  font-family="Arial"  font-size="12"  fill=" #000000"  text-anchor="middle" ><tspan x="349.05707" dy="12">TurningPoint</tspan></text><polygon points="431,433.811280478224 463.3472768576146,433.811280478224 463.3472768576146,601.9399546853475 431,601.9399546853475 "  style="stroke:#000000;fill:#ffffff;stroke-width:2;stroke-linecap:butt;stroke-linejoin:miter;"  /><text y="442.53514"  transform="rotate(0 447.17363 ,508.53514)"  font-family="Arial"  font-size="12"  fill=" #000000"  text-anchor="middle" ><tspan x="447.17363" dy="12">C</tspan><tspan x="447.17363" dy="15">O</tspan><tspan x="447.17363" dy="15">N</tspan><tspan x="447.17363" dy="15">N</tspan><tspan x="447.17363" dy="15">E</tspan><tspan x="447.17363" dy="15">C</tspan><tspan x="447.17363" dy="15">T</tspan><tspan x="447.17363" dy="15">O</tspan><tspan x="447.17363" dy="15">R</tspan></text><polygon points="565.5216277423947,149 672.4990917090814,149 672.4990917090814,194 565.5216277423947,194 "  style="stroke:#000000;fill:#ffffff;stroke-width:2;stroke-linecap:butt;stroke-linejoin:miter;"  /><text y="163"  transform="rotate(0 619.01038 ,169)"  font-family="Arial"  font-size="12"  fill=" #000000"  text-anchor="middle" ><tspan x="619.01038" dy="12">HandleManager</tspan></text><polygon points="431,148.5128787906885 474.13879508209277,148.5128787906885 474.13879508209277,275.0555583932413 431,275.0555583932413 "  style="stroke:#000000;fill:#ffffff;stroke-width:2;stroke-linecap:butt;stroke-linejoin:miter;"  /><text y="161.25406"  transform="rotate(0 452.5694 ,204.75406)"  font-family="Arial"  font-size="12"  fill=" #000000"  text-anchor="middle" ><tspan x="452.5694" dy="12">F</tspan><tspan x="452.5694" dy="15">I</tspan><tspan x="452.5694" dy="15">G</tspan><tspan x="452.5694" dy="15">U</tspan><tspan x="452.5694" dy="15">R</tspan><tspan x="452.5694" dy="15">E</tspan></text><text y="42.5"  transform="rotate(0 371 ,48.5)"  font-family="Arial"  font-size="12"  fill=" #000000"  text-anchor="middle" ><tspan x="371" dy="12">1</tspan></text><text y="42.5"  transform="rotate(0 433 ,48.5)"  font-family="Arial"  font-size="12"  fill=" #000000"  text-anchor="middle" ><tspan x="433" dy="12">*</tspan></text><text y="166.5"  transform="rotate(0 421 ,172.5)"  font-family="Arial"  font-size="12"  fill=" #000000"  text-anchor="middle" ><tspan x="421" dy="12">1</tspan></text><text y="159.5"  transform="rotate(0 357 ,165.5)"  font-family="Arial"  font-size="12"  fill=" #000000"  text-anchor="middle" ><tspan x="357" dy="12">*</tspan></text><text y="265.5"  transform="rotate(0 310 ,271.5)"  font-family="Arial"  font-size="12"  fill=" #000000"  text-anchor="middle" ><tspan x="310" dy="12">1</tspan></text><text y="315.5"  transform="rotate(0 312 ,321.5)"  font-family="Arial"  font-size="12"  fill=" #000000"  text-anchor="middle" ><tspan x="312" dy="12">*</tspan></text><text y="363.5"  transform="rotate(0 330 ,369.5)"  font-family="Arial"  font-size="12"  fill=" #000000"  text-anchor="middle" ><tspan x="330" dy="12">*</tspan></text><text y="379.5"  transform="rotate(0 325 ,385.5)"  font-family="Arial"  font-size="12"  fill=" #000000"  text-anchor="middle" ><tspan x="325" dy="12">1</tspan></text><text y="197.5"  transform="rotate(0 616 ,203.5)"  font-family="Arial"  font-size="12"  fill=" #000000"  text-anchor="middle" ><tspan x="616" dy="12">1</tspan></text><text y="230.5"  transform="rotate(0 613 ,236.5)"  font-family="Arial"  font-size="12"  fill=" #000000"  text-anchor="middle" ><tspan x="613" dy="12">*</tspan></text><text y="498.5"  transform="rotate(0 374 ,504.5)"  font-family="Arial"  font-size="12"  fill=" #000000"  text-anchor="middle" ><tspan x="374" dy="12">*</tspan></text><polygon points="568.438448593427,497 702.923080269999,497 702.923080269999,542 568.438448593427,542 "  style="stroke:#000000;fill:#ffffff;stroke-width:2;stroke-linecap:butt;stroke-linejoin:miter;"  /><text y="511"  transform="rotate(0 635.68076 ,517)"  font-family="Arial"  font-size="12"  fill=" #000000"  text-anchor="middle" ><tspan x="635.68076" dy="12">Connection Manager</tspan></text><text y="501.5"  transform="rotate(0 559 ,507.5)"  font-family="Arial"  font-size="12"  fill=" #000000"  text-anchor="middle" ><tspan x="559" dy="12">1</tspan></text><text y="500.5"  transform="rotate(0 475 ,506.5)"  font-family="Arial"  font-size="12"  fill=" #000000"  text-anchor="middle" ><tspan x="475" dy="12">*</tspan></text><text y="27"  transform="rotate(0 120 ,46.5)"  font-family="Arial"  font-size="18"  fill=" #ff6600"  text-anchor="middle" ><tspan x="120" dy="18">Diagramo architecture</tspan><tspan x="120" dy="21">overview</tspan></text><polyline points="362,57.5 449.3032915402952,57.5 " style="stroke:#000000;fill:none;stroke-width:1;stroke-linecap:butt;stroke-linejoin:miter;" /><text y="52.5"  transform="rotate(0 405.65165 ,57.5)"  font-family="Arial"  font-size="10"  text-anchor="middle" ><tspan x="405.65165" dy="10"></tspan></text><polyline points="314.9193978839961,265.6802290579531 320,332 " style="stroke:#000000;fill:none;stroke-width:1;stroke-linecap:butt;stroke-linejoin:miter;" /><text y="293.84011"  transform="rotate(0 317.4597 ,298.84011)"  font-family="Arial"  font-size="10"  text-anchor="middle" ><tspan x="317.4597" dy="10"></tspan></text><polyline points="320,362.0956702947444 319.0490200414042,402 " style="stroke:#000000;fill:none;stroke-width:1;stroke-linecap:butt;stroke-linejoin:miter;" /><text y="377.04784"  transform="rotate(0 319.52451 ,382.04784)"  font-family="Arial"  font-size="10"  text-anchor="middle" ><tspan x="319.52451" dy="10"></tspan></text><polyline points="299.898824835804,463.83513394421624 300.0761076947133,493 " style="stroke:#000000;fill:none;stroke-width:1;stroke-linecap:butt;stroke-linejoin:miter;" /><text y="473.41757"  transform="rotate(0 299.98747 ,478.41757)"  font-family="Arial"  font-size="10"  text-anchor="middle" ><tspan x="299.98747" dy="10"></tspan></text><polyline points="300.0761076947133,525.0710159122298 303.5803274092294,560 " style="stroke:#000000;fill:none;stroke-width:1;stroke-linecap:butt;stroke-linejoin:miter;" /><text y="537.53551"  transform="rotate(0 301.82822 ,542.53551)"  font-family="Arial"  font-size="10"  text-anchor="middle" ><tspan x="301.82822" dy="10"></tspan></text><polyline points="603.7278648733544,194 602,247 " style="stroke:#000000;fill:none;stroke-width:1;stroke-linecap:butt;stroke-linejoin:miter;" /><text y="182"  transform="rotate(0 619 ,187)"  font-family="Arial"  font-size="10"  text-anchor="middle" ><tspan x="619" dy="10"></tspan></text><polyline points="431,183.66362312473092 341,176.96780096160717 " style="stroke:#000000;fill:none;stroke-width:1;stroke-linecap:butt;stroke-linejoin:miter;" /><text y="173"  transform="rotate(0 446 ,178)"  font-family="Arial"  font-size="10"  text-anchor="middle" ><tspan x="446" dy="10"></tspan></text><polyline points="386.0747,432.91757 406.0747,432.91757 406.0747,445.7408 399.21648,445.7408 379.21648,445.7408 " style="stroke:#000000;fill:none;stroke-width:1;stroke-linecap:butt;stroke-linejoin:miter;" /><polygon points="379.21648,445.7408 392.20686105676657,453.2408 392.20686105676657,438.2408 "  style="stroke:#000000;fill:#000000;stroke-width:1;stroke-linecap:butt;stroke-linejoin:miter;"  /><text y="437.7583"  transform="rotate(0 406.0747 ,442.7583)"  font-family="Arial"  font-size="10"  text-anchor="middle" ><tspan x="406.0747" dy="10">Is a</tspan></text><polyline points="390.88881,594.93854 410.88881,594.93854 410.88881,614.83795 408.11415,614.83795 388.11415,614.83795 " style="stroke:#000000;fill:none;stroke-width:1;stroke-linecap:butt;stroke-linejoin:miter;" /><text y="601.27558"  transform="rotate(0 410.88881 ,606.27558)"  font-family="Arial"  font-size="10"  text-anchor="middle" ><tspan x="410.88881" dy="10">Is a</tspan></text><polyline points="568.43845,519.5 463.34728,517.87562 " style="stroke:#000000;fill:none;stroke-width:1;stroke-linecap:butt;stroke-linejoin:miter;" /><polygon points="568.43845,519.5 555.5655331012724,511.80012918819716 555.3337078217567,526.7983376492027 "  style="stroke:#000000;fill:#000000;stroke-width:1;stroke-linecap:butt;stroke-linejoin:miter;"  /><polygon points="460.09890801868164,622.9291335148953 467.9968103597791,610.1767557518863 453.0039760878087,609.7131605693919 "  style="stroke:#000000;fill:#000000;stroke-width:1;stroke-linecap:butt;stroke-linejoin:miter;"  /><text y="513.68781"  transform="rotate(0 515.89287 ,518.68781)"  font-family="Arial"  font-size="10"  text-anchor="middle" ><tspan x="515.89287" dy="10">Managed by</tspan></text><polyline points="474.1388,211.78422 565.52163,171.5 " style="stroke:#000000;fill:none;stroke-width:1;stroke-linecap:butt;stroke-linejoin:miter;" /><polygon points="565.52163,171.5 550.6096687283886,169.87722119992807 556.6602816986092,183.60274788142917 "  style="stroke:#000000;fill:#000000;stroke-width:1;stroke-linecap:butt;stroke-linejoin:miter;"  /><text y="161.64211"  transform="rotate(0 519.83021 ,191.64211)"  font-family="Arial"  font-size="10"  text-anchor="middle" ><tspan x="519.83021" dy="10">Figure's</tspan><tspan x="519.83021" dy="12.5">handlers</tspan><tspan x="519.83021" dy="12.5">managed by</tspan><tspan x="519.83021" dy="12.5"></tspan><tspan x="519.83021" dy="12.5"></tspan></text></svg>