<?xml version="1.0" encoding="UTF-8" standalone="no"?>
<!-- Created with Inkscape (http://www.inkscape.org/) -->

<svg
   xmlns:dc="http://purl.org/dc/elements/1.1/"
   xmlns:cc="http://creativecommons.org/ns#"
   xmlns:rdf="http://www.w3.org/1999/02/22-rdf-syntax-ns#"
   xmlns:svg="http://www.w3.org/2000/svg"
   xmlns="http://www.w3.org/2000/svg"
   xmlns:sodipodi="http://sodipodi.sourceforge.net/DTD/sodipodi-0.dtd"
   xmlns:inkscape="http://www.inkscape.org/namespaces/inkscape"
   width="400"
   height="400"
   id="svg2"
   version="1.1"
   inkscape:version="0.48.1 "
   sodipodi:docname="house.svg">
  <defs
     id="defs4" />
  <sodipodi:namedview
     id="base"
     pagecolor="#ffffff"
     bordercolor="#666666"
     borderopacity="1.0"
     inkscape:pageopacity="0.0"
     inkscape:pageshadow="2"
     inkscape:zoom="1.18"
     inkscape:cx="201.31265"
     inkscape:cy="200"
     inkscape:document-units="px"
     inkscape:current-layer="layer1"
     showgrid="false"
     inkscape:window-width="983"
     inkscape:window-height="661"
     inkscape:window-x="269"
     inkscape:window-y="47"
     inkscape:window-maximized="0" />
  <metadata
     id="metadata7">
    <rdf:RDF>
      <cc:Work
         rdf:about="">
        <dc:format>image/svg+xml</dc:format>
        <dc:type
           rdf:resource="http://purl.org/dc/dcmitype/StillImage" />
        <dc:title></dc:title>
      </cc:Work>
    </rdf:RDF>
  </metadata>
  <g
     inkscape:label="Layer 1"
     inkscape:groupmode="layer"
     id="layer1"
     transform="translate(0,-652.36218)">
    <rect
       style="fill:#008000;fill-rule:evenodd;stroke:#000000;stroke-width:1px;stroke-linecap:butt;stroke-linejoin:miter;stroke-opacity:1;fill-opacity:1"
       id="rect2985"
       width="224.57628"
       height="230.50847"
       x="23.728815"
       y="807.4469" />
    <path
       style="fill:#782121;stroke:#000000;stroke-width:1px;stroke-linecap:butt;stroke-linejoin:miter;stroke-opacity:1"
       d="m 4.2372881,154.23729 266.1016919,0 L 112.71186,45.762712 z"
       id="path3755"
       inkscape:connector-curvature="0"
       transform="translate(0,652.36218)" />
    <rect
       style="fill:#cccccc;fill-opacity:1"
       id="rect3757"
       width="80.508476"
       height="103.38983"
       x="84.745766"
       y="283.05084"
       transform="translate(0,652.36218)" />
    <rect
       style="fill:#cccccc;fill-opacity:1"
       id="rect3759"
       width="54.237289"
       height="64.406776"
       x="48.305084"
       y="187.28813"
       transform="translate(0,652.36218)" />
    <rect
       style="fill:#cccccc;fill-opacity:1"
       id="rect3759-1"
       width="54.237289"
       height="64.406776"
       x="163.55933"
       y="837.95538" />
    <path
       sodipodi:type="arc"
       style="fill:#ffff00;fill-opacity:1;stroke:#000000;stroke-opacity:1"
       id="path3781"
       sodipodi:cx="251.69492"
       sodipodi:cy="56.779659"
       sodipodi:rx="34.745762"
       sodipodi:ry="34.745762"
       d="m 286.44068,56.779659 a 34.745762,34.745762 0 1 1 -69.49153,0 34.745762,34.745762 0 1 1 69.49153,0 z"
       transform="translate(100.84745,640.49778)" />
    <path
       style="fill:none;stroke:#ffff00;stroke-width:2;stroke-linecap:butt;stroke-linejoin:miter;stroke-opacity:1;stroke-miterlimit:4;stroke-dasharray:none"
       d="m 218.64407,687.10794 c 5.42751,-3.01528 12.20938,-6.9275 17.79661,-9.32203 2.05272,-0.87974 4.47163,1.81209 5.9322,2.54237 1.36063,0.68032 2.82486,1.12995 4.23729,1.69492 1.41243,0.56497 2.7456,1.39657 4.23729,1.69491 1.385,0.277 2.84764,-0.25266 4.23729,0 1.75778,0.3196 3.31892,1.42325 5.08474,1.69492 1.95441,0.30068 3.9548,0 5.9322,0 1.12995,0 2.25989,0 3.38984,0 1.9774,0 3.9548,0 5.9322,0 0.84746,0 1.70644,0.13932 2.54237,0 0.84746,-0.28249 1.69492,-0.56497 2.54237,-0.84746 0.28249,-0.28249 0.46847,-0.72113 0.84746,-0.84746 2.01389,-0.6713 1.53918,1.0032 3.38983,-0.84746 0.19975,-0.19974 -0.19975,-0.64771 0,-0.84745 0.44665,-0.44665 1.24827,-0.40081 1.69492,-0.84746 0.19975,-0.19975 -0.19975,-0.64771 0,-0.84746 0.19975,-0.19975 0.64771,0.19975 0.84746,0 0.19974,-0.19975 -0.12634,-0.59479 0,-0.84746 0.17866,-0.35732 0.66879,-0.49013 0.84745,-0.84745 0.12633,-0.25267 0,-0.56498 0,-0.84746 0.28249,-0.28249 0.6688,-0.49014 0.84746,-0.84746 0.12633,-0.25266 -0.19975,-0.64771 0,-0.84746 1.03219,-1.03219 1.8934,-0.39696 2.54237,-1.69491 0.28249,-0.84746 0.56498,-1.69492 0.84746,-2.54237 0.28249,-0.28249 0.6688,-0.49014 0.84746,-0.84746 0.12633,-0.25267 -0.12633,-0.5948 0,-0.84746 0.17866,-0.35732 0.6688,-0.49014 0.84746,-0.84746 0.12633,-0.25266 -0.19975,-0.64771 0,-0.84746 0.19974,-0.19974 0.56497,0 0.84745,0"
       id="path3783"
       inkscape:connector-curvature="0" />
    <path
       style="fill:none;stroke:#ffff00;stroke-width:2;stroke-linecap:butt;stroke-linejoin:miter;stroke-opacity:1;stroke-miterlimit:4;stroke-dasharray:none"
       d="m 245.76271,88.135593 c 1.12995,-0.847457 2.25989,-1.694915 3.38983,-2.542373 0.56497,-0.282486 1.16935,-0.497077 1.69492,-0.847457 1.17521,-0.783475 2.15514,-1.856437 3.38983,-2.542373 1.3298,-0.738776 2.93284,-0.912248 4.23729,-1.694915 1.55102,-0.930616 2.68626,-2.459215 4.23728,-3.389831 2.28563,-1.371376 7.03441,-2.373108 9.32204,-3.38983 4.15898,-1.848437 1.09332,-1.576336 5.08474,-4.237289 0.74327,-0.495513 1.67575,-0.6308 2.54238,-0.847457 0.5282,-0.132052 3.91949,-0.07945 4.23729,0 1.53384,-0.510787 1.57612,1.372832 2.54237,1.694915 0.48208,0.160696 3.43912,0 4.23729,0 0.58518,0 3.13217,0.128829 3.38983,0 0.71464,-0.357319 1.03011,-1.251715 1.69491,-1.694915 0.77414,-0.516095 2.0566,-0.723375 2.54237,-1.694915 0.12634,-0.252664 -0.19974,-0.64771 0,-0.847458 0.19975,-0.199748 0.72113,0.252663 0.84746,0 0.25267,-0.505326 -0.17866,-1.158936 0,-1.694915 0.12633,-0.378995 0.6688,-0.490138 0.84746,-0.847458 0.10956,-0.219111 0,-4.484066 0,-5.084746"
       id="path3785"
       inkscape:connector-curvature="0"
       transform="translate(0,652.36218)" />
    <path
       style="fill:none;stroke:#ffff00;stroke-width:2;stroke-linecap:butt;stroke-linejoin:miter;stroke-opacity:1;stroke-miterlimit:4;stroke-dasharray:none"
       d="m 279.66102,131.35593 c 0.56497,-1.41243 1.12994,-2.82486 1.69491,-4.23729 0.56497,-0.56497 1.28384,-1.00978 1.69492,-1.69491 0.4596,-0.766 0.35194,-1.7991 0.84746,-2.54237 2.74626,-4.1194 1.59835,-1.41064 4.23728,-3.38983 0.6392,-0.4794 0.98028,-1.3376 1.69492,-1.69492 1.04175,-0.52088 2.28488,-0.47914 3.38983,-0.84746 0.59924,-0.19975 1.09567,-0.64771 1.69491,-0.84746 0.53598,-0.17865 1.12995,0 1.69492,0 0.56497,0 1.15894,-0.17865 1.69491,0 0.379,0.12634 0.56498,0.56498 0.84746,0.84746 0.56497,0.56497 1.05573,1.21552 1.69492,1.69492 0.50532,0.37899 1.16934,0.49707 1.69491,0.84746 0.3324,0.2216 0.49014,0.66879 0.84746,0.84745 1.59798,0.79899 3.42593,1.03139 5.08475,1.69492 1.71268,0.68507 3.15548,1.69491 5.08474,1.69491 0.20553,0 2.51512,0.0273 2.54237,0 0.19975,-0.19974 -0.0893,-0.57946 0,-0.84745 0.19975,-0.59925 0.49708,-1.16935 0.84746,-1.69492 1.03375,-1.55062 1.08046,-0.0846 1.69492,-2.54237 0.13702,-0.54811 -0.13703,-1.14681 0,-1.69492 1.38317,-5.53271 0.45506,3.20185 1.69491,-4.23729 0.19967,-1.19797 0,-2.92838 0,-4.23728 0,-0.84746 0,-1.69492 0,-2.54238 0,-0.28248 0.19975,-0.64771 0,-0.84745 -0.19974,-0.19975 -0.64771,0.19974 -0.84745,0 -0.19975,-0.19975 0.19974,-0.64771 0,-0.84746 -0.19975,-0.19975 -0.64771,0.19975 -0.84746,0 -0.19975,-0.19975 0,-0.56497 0,-0.84746 0,-0.28249 0,-0.56497 0,-0.84746 0,-0.28248 -0.12633,-0.59479 0,-0.84745 0.48577,-0.97155 1.76823,-1.17883 2.54237,-1.69492 1.42706,0.3364 0.57886,-1.426318 0.84746,-1.694915 0.19975,-0.199748 0.64771,0.199747 0.84746,0 0.19974,-0.199748 0,-0.564972 0,-0.847458 0,-1.548389 -0.20326,-0.847458 -1.69492,-0.847458"
       id="path3787"
       inkscape:connector-curvature="0"
       transform="translate(0,652.36218)" />
    <path
       style="fill:none;stroke:#ffff00;stroke-width:2;stroke-linecap:butt;stroke-linejoin:miter;stroke-opacity:1;stroke-miterlimit:4;stroke-dasharray:none"
       d="m 356.77966,136.44068 c 8.96425,-7.78101 -1.8924,-5.02724 -2.54237,-7.62712 -0.20554,-0.82216 0.13932,-1.70645 0,-2.54237 -0.14686,-0.88115 -0.67227,-1.66642 -0.84746,-2.54238 -0.1108,-0.554 0,-1.12994 0,-1.69491 0,-1.12995 0,-2.25989 0,-3.38983 0,-0.28249 0,-0.56497 0,-0.84746 0,-0.28249 -0.19975,-0.64771 0,-0.84746 0.19975,-0.19975 0.64771,0.19975 0.84746,0 0.19975,-0.19975 -0.19975,-0.64771 0,-0.84746 0.19975,-0.19974 0.64771,0.19975 0.84746,0 0.44665,-0.44664 0.4008,-1.24826 0.84745,-1.69491 0.3995,-0.3995 1.18959,0.25266 1.69492,0 0.35732,-0.17866 0.49014,-0.6688 0.84746,-0.84746 0.53264,-0.26632 2.85718,0.26633 3.38983,0 0.35732,-0.17866 0.49013,-0.6688 0.84745,-0.84746 0.25267,-0.12633 0.56498,0 0.84746,0 0.56497,0 1.15894,0.17866 1.69492,0 0.75799,-0.25266 0.98027,-1.33759 1.69491,-1.69491 1.16895,-0.58447 0.75803,1.02632 1.69492,-0.84746 0.12633,-0.25266 0,-0.56497 0,-0.84746 0,-0.28248 0,-0.56497 0,-0.84745 0,-1.41243 0,-2.82486 0,-4.23729 0,-0.28249 0.15669,-0.61242 0,-0.84746 -0.4432,-0.6648 -1.3376,-0.98028 -1.69492,-1.69491 -0.25266,-0.50533 0.17866,-1.15894 0,-1.69492 -0.12633,-0.378995 -0.56497,-0.564972 -0.84746,-0.847458 -0.28248,-0.564971 -0.64771,-1.095672 -0.84745,-1.694915 -0.17866,-0.535979 0.39949,-1.29542 0,-1.694915 -0.19975,-0.199748 -0.64771,0.199748 -0.84746,0 -0.0341,-0.0341 0,-3.078613 0,-3.389831"
       id="path3789"
       inkscape:connector-curvature="0"
       transform="translate(0,652.36218)" />
    <path
       style="fill:#00ff00;stroke:#000000;stroke-width:1.02159536px;stroke-linecap:butt;stroke-linejoin:miter;stroke-opacity:1"
       d="m 277.9661,1026.8784 c -0.50118,-2.9586 -3.64434,-2.0345 -5.08474,-3.5378 -0.19975,-0.2085 0.15669,-0.6392 0,-0.8845 -1.69492,-2.6533 -1.27119,-0.8844 -2.54238,-2.6533 -0.61111,-0.8504 -1.17089,-1.7419 -1.69491,-2.6534 -0.32499,-0.5653 -0.40081,-1.3028 -0.84746,-1.7689 -0.44665,-0.4662 -1.31592,-0.3571 -1.69492,-0.8845 -0.34182,-1.0702 -0.94674,-3.3811 -1.69491,-4.4222 -0.47939,-0.6672 -1.21552,-1.1019 -1.69492,-1.769 -0.37899,-0.5274 -0.52247,-1.2036 -0.84745,-1.7689 -0.39058,-0.6794 -2.26564,-3.267 -2.54238,-4.4222 -0.13702,-0.5721 0.17866,-1.2096 0,-1.769 -0.12633,-0.3955 -0.66879,-0.5115 -0.84745,-0.88442 -0.12634,-0.26369 0.0893,-0.60476 0,-0.88445 -0.19975,-0.62541 -0.69426,-1.12936 -0.84746,-1.76891 -0.14057,-0.58681 0,-4.55637 0,-5.30672 0,-0.83035 -0.16186,-3.9155 0,-4.42228 0.12633,-0.39555 0.56497,-0.58964 0.84746,-0.88446 0.28248,-0.58964 0.64771,-1.1435 0.84745,-1.76892 0.0893,-0.27968 -0.19974,-0.67598 0,-0.88444 0.8933,-0.9323 2.49654,-0.83662 3.38983,-1.76892 0.19975,-0.20847 -0.19974,-0.67598 0,-0.88446 0.19975,-0.20846 0.56498,0 0.84746,0 0.84746,0 1.69492,0 2.54237,0 1.97741,0 3.95481,0 5.93221,0 0.2783,0 2.4161,-0.0879 2.54237,0 0.6648,0.46255 1.03012,1.30637 1.69492,1.76892 0.23504,0.16353 0.64771,-0.20847 0.84745,0 0.44665,0.46615 0.46847,1.24152 0.84746,1.7689 0.4794,0.66711 1.12995,1.17928 1.69492,1.76892 0.28248,0.29482 0.66879,0.51154 0.84745,0.88446 0.3995,0.83387 0.31148,1.90752 0.84746,2.65336 0.379,0.52739 1.24827,0.41831 1.69492,0.88446 1.85065,1.93144 0.17616,1.43601 0.84746,3.53782 0.12633,0.39553 0.66879,0.51154 0.84745,0.88445 0.11326,0.2364 -0.53728,4.09856 0.84746,2.65337 0.19975,-0.20847 0,-0.58964 0,-0.88446 0,-0.58964 0,-1.17927 0,-1.76891 0,-1.76891 0,-3.53781 0,-5.30673 0,-0.58964 -0.13703,-1.19688 0,-1.7689 0.3064,-1.27911 1.22573,-2.31367 1.69492,-3.53784 0.33176,-0.8656 0.67226,-1.73917 0.84745,-2.65336 0.1108,-0.57818 -0.29067,-1.26329 0,-1.7689 0.61662,-1.07257 1.69492,-1.76892 2.54238,-2.65338 0.28248,-0.29481 0.66879,-0.51152 0.84745,-0.88444 0.3995,-0.83387 0.38786,-1.85393 0.84746,-2.65338 0.41108,-0.71504 1.25172,-1.07508 1.69492,-1.7689 0.15669,-0.2453 -0.1567,-0.63916 0,-0.88446 0.4432,-0.69382 1.21552,-1.10181 1.69491,-1.76891 0.379,-0.52738 0.46846,-1.24152 0.84746,-1.76891 0.47939,-0.66709 1.12994,-1.17927 1.69491,-1.76891 0.28249,-0.29481 0.52787,-0.6343 0.84746,-0.88445 0.52969,-0.41461 2.74199,-1.63919 3.38983,-2.65337 0.35038,-0.54852 0.40081,-1.30276 0.84746,-1.76891 0.3995,-0.41694 1.29542,0.41693 1.69492,0 0.19974,-0.20847 -0.19975,-0.67598 0,-0.88445 0.19974,-0.20848 0.56497,0 0.84745,0 0.28249,0 0.64771,-0.20848 0.84746,0 0.44665,0.46614 0.49708,1.2204 0.84746,1.76891 0.2216,0.34691 0.6688,0.51153 0.84746,0.88445 0.12633,0.2637 -0.12634,0.62076 0,0.88445 1.93924,4.04781 -0.35125,-3.7531 1.69491,2.65337 0.0893,0.27969 0,1.17928 0,0.88445 0,-1.7689 0,-3.53782 0,-5.30672 0,-0.58965 -0.13702,-1.19689 0,-1.76891 0.57957,-2.41948 1.19165,-1.42328 2.54237,-3.53782 0.70077,-1.09703 1.04495,-2.40725 1.69492,-3.53782 0.20554,-0.35752 0.62586,-0.53755 0.84746,-0.88446 0.35038,-0.54852 0.49707,-1.22039 0.84745,-1.76891 0.55407,-0.86739 1.66025,-1.46203 2.54238,-1.76891 0.53598,-0.18646 1.29542,0.41694 1.69491,0 0.19975,-0.20847 -0.19974,-0.67599 0,-0.88446 0.19975,-0.20846 0.56497,0 0.84746,0 1.03448,0 1.95422,-0.3432 2.54237,0.88446 0.58448,1.21998 -1.02631,0.79112 0.84746,1.76891 0.30888,0.16119 3.74899,0 4.23729,0 2.82486,0 5.64972,0 8.47458,0 4.80226,0 9.60452,0 14.40678,0 0.84745,0 1.69491,0 2.54237,0 0.84746,0 1.75553,-0.32848 2.54237,0 0.74185,0.30969 1.03012,1.30636 1.69492,1.76891 0.23504,0.16354 0.59479,-0.13185 0.84745,0 0.35732,0.18646 0.56498,0.58963 0.84746,0.88446 0.28249,0.29482 0.72113,0.48891 0.84746,0.88445 0.17866,0.55938 -0.17866,1.20953 0,1.76891 0.44975,1.40815 1.24516,0.36076 1.69491,1.76891 0.26799,0.83907 0,1.76891 0,2.65337 0,0.29482 0.12634,0.62076 0,0.88445 -0.17531,0.36594 -2.18316,2.40344 -2.54237,2.65336 -0.52557,0.36568 -1.16934,0.51879 -1.69491,0.88446 -0.3324,0.23128 -0.49014,0.698 -0.84746,0.88446 -2.25989,0 0.28248,-0.29482 -0.84746,0.88445 -0.19975,0.20847 -1.12994,0 -0.84746,0 2.82486,0 5.64972,0 8.47458,0 0.56497,0 1.12994,0 1.69491,0 0.56498,0 1.18959,-0.26369 1.69492,0 0.25266,0.13185 -0.19975,0.67598 0,0.88445 0.8933,0.9323 2.68907,0.67189 3.38983,1.76892 0.31339,0.4906 -0.31339,1.2783 0,1.7689 0.35038,0.54852 1.31592,0.35707 1.69492,0.88446 2.45539,3.41679 -0.0565,1.59202 0.84745,4.42228 0.12634,0.39554 0.6688,0.51154 0.84746,0.88446 0.11911,0.24861 0.11911,4.17366 0,4.42226 -0.17866,0.37292 -0.72112,0.48893 -0.84746,0.88446 -0.17866,0.55938 0.31339,1.2783 0,1.76892 -0.35038,0.54851 -1.24826,0.41831 -1.69491,0.88444 -0.3995,0.41695 0.39949,1.35198 0,1.76892 -0.37665,0.39309 -1.60075,-0.68791 -0.84746,0.88446 1.14353,2.3869 0.37985,-0.0306 1.69492,0.88446 0.46665,0.32468 3.89094,3.94032 4.23728,4.42226 0.379,0.52739 0.46847,1.24153 0.84746,1.76892 0.4794,0.66709 1.28384,1.05386 1.69492,1.7689 2.58395,0.62612 0.32658,2.45059 0.84745,3.53782 0.17866,0.37292 0.6688,0.51154 0.84746,0.88442 0.22987,0.4799 -0.23188,3.2959 0,3.5379 0.19975,0.2084 0.64771,0.2084 0.84746,0 0.19975,-0.2085 -0.19975,-0.676 0,-0.8845 0.19975,-0.2085 0.59479,0.1319 0.84746,0 0.35732,-0.1865 0.49014,-0.698 0.84746,-0.8844 0.50532,-0.2637 1.29541,0.4169 1.69491,0 0.37665,-0.3931 -0.65913,-1.6707 0.84746,-0.8845 0.35732,0.1865 0.6688,0.5115 0.84746,0.8845 0.1329,0.2774 0.0705,4.1279 0,4.4222 0.62946,1.6369 -1.44789,1.6221 -1.69492,2.6534 -0.51385,1.4081 0.34256,2.9922 0,4.4223 -0.1532,0.6395 -0.64771,1.1435 -0.84746,1.7689 -0.0893,0.2797 0.0893,0.6047 0,0.8844 -0.19974,0.6254 -0.64771,1.1435 -0.84745,1.7689 -0.0893,0.2797 -0.19975,0.676 0,0.8845 0.39949,0.4169 1.18958,-0.2637 1.69491,0 2.28706,1.1935 -0.0292,0.3964 0.84746,1.7689 0.65189,1.0205 1.89048,1.6328 2.54237,2.6534 0.35038,0.5485 0.56497,1.1792 0.84746,1.7689 0.56497,0.5896 1.25171,1.0751 1.69491,1.7689 0.1567,0.2453 0,0.5896 0,0.8845 0,0.5896 -0.17866,1.2095 0,1.7689 0.12634,0.3955 0.72113,0.4889 0.84746,0.8844 0.15187,0.4755 0,2.789 0,3.5378 0,0.2353 0.13995,2.5804 0,2.6534 -0.50532,0.2637 -1.18959,-0.2637 -1.69491,0 -0.25267,0.1319 0.12633,0.6208 0,0.8845 -0.17866,0.3729 -0.49014,0.698 -0.84746,0.8844 -0.18994,0.099 -3.18845,0 -3.38983,0 -0.84746,0 -1.69492,0 -2.54237,0 -0.56498,0 -1.15894,0.1865 -1.69492,0 -0.37899,-0.1318 -0.45989,-0.7833 -0.84746,-0.8844 -0.82215,-0.2146 -1.70343,0.125 -2.54237,0 -1.15301,-0.1719 -2.23411,-0.7337 -3.38983,-0.8845 -1.12122,-0.1463 -2.25989,0 -3.38983,0 -3.10735,0 -6.21469,0 -9.32204,0 -13.55932,0 -27.11864,0 -40.67796,0 -3.9548,0 -7.90961,0 -11.86441,0 -0.60068,0 -4.86563,-0.1143 -5.08474,0 -0.35732,0.1865 -0.45989,0.7833 -0.84746,0.8845 -1.09621,0.286 -2.25989,0 -3.38983,0 -1.9774,0 -3.9548,0 -5.93221,0 -0.28248,0 -0.64771,-0.2085 -0.84745,0 -0.19975,0.2084 0.19974,0.6759 0,0.8844 -0.19975,0.2085 -0.56498,0 -0.84746,0 -0.45272,0 -3.99474,-0.1266 -4.23729,0 -0.35732,0.1865 -0.49014,0.698 -0.84746,0.8845 -0.17383,0.091 -2.42286,0.1247 -2.54237,0 -0.3995,-0.417 0.50533,-1.5052 0,-1.7689 -0.50533,-0.2637 -1.18959,0.2637 -1.69491,0 -0.50533,-0.2637 0.39949,-1.352 0,-1.769 -0.19975,-0.2084 -0.64771,0.2085 -0.84746,0 -0.19975,-0.2084 0.19975,-0.6759 0,-0.8844 -0.44665,-0.4662 -1.24827,-0.4183 -1.69492,-0.8845 -0.19975,-0.2084 0.19975,-0.676 0,-0.8844 -0.19975,-0.2085 -0.64771,0.2084 -0.84746,0 -1.75342,-1.83 2.67946,0.072 -0.84745,-1.7689 -0.25267,-0.1319 -0.74255,0.2737 -0.84746,0 -0.53495,-1.3958 -2.25989,-4.1275 -0.84746,-4.4223 1.41243,-0.2948 2.25989,4.1274 0.84746,4.4223 -1.41243,0.2948 -0.56497,-2.9482 -0.84746,-4.4223 z"
       id="path3791"
       inkscape:connector-curvature="0" />
    <path
       style="fill:#ff0000;stroke:#000000;stroke-width:1px;stroke-linecap:butt;stroke-linejoin:miter;stroke-opacity:1"
       d="m 305.9322,333.89831 c 0.28249,-1.12995 0.4149,-2.30842 0.84746,-3.38984 0.14837,-0.37092 0.62586,-0.51505 0.84746,-0.84745 0.35038,-0.52557 0.49708,-1.16935 0.84746,-1.69492 0.23947,-0.3592 2.19173,-2.36705 2.54237,-2.54237 0.25266,-0.12633 0.56497,0 0.84746,0 0.31837,0 4.21614,-0.0211 4.23728,0 0.44665,0.44665 0.40081,1.24826 0.84746,1.69491 0.44665,0.44665 1.16935,0.49708 1.69492,0.84746 0.3324,0.2216 0.49014,0.6688 0.84746,0.84746 0.25266,0.12633 0.64771,-0.19975 0.84745,0 0.19975,0.19975 0,0.56497 0,0.84746 0,0.31121 0.0341,3.35572 0,3.38983 -0.19974,0.19975 -0.64771,-0.19975 -0.84745,0 -0.19975,0.19975 0,0.56497 0,0.84746 0,0.28248 0,1.12994 0,0.84745 0,-0.56497 -0.25267,-1.18959 0,-1.69491 0.12633,-0.25267 0.59479,0.12633 0.84745,0 0.71464,-0.35732 0.98028,-1.3376 1.69492,-1.69492 0.0722,-0.0361 3.31759,-0.0361 3.38983,0 0.35732,0.17866 0.56497,0.56497 0.84746,0.84746 0.56497,0.56497 1.25171,1.03011 1.69491,1.69492 0.1567,0.23504 -0.12633,0.59479 0,0.84745 0.17866,0.35732 0.6688,0.49014 0.84746,0.84746 0.15323,0.30647 0,3.64785 0,4.23729 0,0.28248 0,0.56497 0,0.84746 0,0.28248 0.19975,0.64771 0,0.84745 -0.19975,0.19975 -0.5948,-0.12633 -0.84746,0 -0.35732,0.17866 -0.49014,0.6688 -0.84746,0.84746 -0.25791,0.12896 -2.16071,0 -2.54237,0 -0.28248,0 -0.64771,0.19975 -0.84746,0 -0.19974,-0.19975 -0.19974,-0.64771 0,-0.84746 0.19975,-0.19974 0.64771,-0.19974 0.84746,0 0.19975,0.19975 0,0.56498 0,0.84746 0,0.38166 0.12896,2.28446 0,2.54237 -0.35732,0.71464 -1.33759,0.98028 -1.69491,1.69492 -0.58448,1.16895 1.02631,0.75803 -0.84746,1.69491 -0.25266,0.12634 -0.56497,0 -0.84746,0 -0.56497,0.28249 -1.16934,0.49708 -1.69491,0.84746 -0.66481,0.4432 -0.98028,1.3376 -1.69492,1.69492 -0.25266,0.12633 -0.56497,0 -0.84746,0 -0.50503,0 -5.72408,0.10406 -5.9322,0 -0.25266,-0.12633 0.19975,-0.64771 0,-0.84746 -0.19975,-0.19975 -0.64771,0.19975 -0.84746,0 -0.26241,-0.26241 0.26241,-3.97488 0,-4.23729 -0.20392,-0.20392 -3.1859,0.20393 -3.38983,0 -0.19975,-0.19975 0.19975,-0.64771 0,-0.84746 -1.75342,-1.75342 0.0685,2.67946 -1.69491,-0.84745 -0.25267,-0.50533 0.39949,-1.29542 0,-1.69492 -0.19975,-0.19975 -0.64771,0.19975 -0.84746,0 -0.19975,-0.19975 0,-0.56497 0,-0.84746 0,-0.28248 0,-0.56497 0,-0.84745 0,-3.44057 -0.11603,-2.25231 1.69491,-6.77966 z"
       id="path3793"
       inkscape:connector-curvature="0"
       transform="translate(0,652.36218)" />
    <path
       style="fill:#ff0000;stroke:#000000;stroke-width:0.59390473px;stroke-linecap:butt;stroke-linejoin:miter;stroke-opacity:1"
       d="m 341.95111,994.94146 c 0.18074,-0.62292 0.26546,-1.2726 0.54221,-1.86877 0.0949,-0.20449 0.40044,-0.28395 0.54222,-0.46719 0.22418,-0.28974 0.31804,-0.64465 0.54222,-0.93439 0.15322,-0.19803 1.4023,-1.30493 1.62665,-1.40158 0.16165,-0.0697 0.36148,0 0.54222,0 0.2037,0 2.69755,-0.0116 2.71108,0 0.28577,0.24623 0.25644,0.68815 0.54221,0.93438 0.28578,0.24624 0.74817,0.27404 1.08444,0.4672 0.21268,0.12216 0.3136,0.3687 0.54222,0.46719 0.16165,0.0697 0.41441,-0.11012 0.54221,0 0.1278,0.11012 0,0.31146 0,0.4672 0,0.17156 0.0218,1.84996 0,1.86877 -0.1278,0.11012 -0.41441,-0.11012 -0.54221,0 -0.1278,0.11012 0,0.31146 0,0.46719 0,0.15573 0,0.62293 0,0.46719 0,-0.31146 -0.16166,-0.6558 0,-0.93438 0.0808,-0.13929 0.38055,0.0696 0.54221,0 0.45724,-0.19699 0.6272,-0.7374 1.08444,-0.93439 0.0462,-0.0199 2.12264,-0.0199 2.16886,0 0.22862,0.0985 0.36148,0.31146 0.54222,0.46719 0.36148,0.31147 0.80087,0.56789 1.08443,0.93439 0.10026,0.12958 -0.0808,0.3279 0,0.46719 0.11431,0.19698 0.42791,0.27019 0.54222,0.46722 0.098,0.16891 0,2.01099 0,2.33597 0,0.15569 0,0.31143 0,0.46716 0,0.15574 0.1278,0.35707 0,0.46722 -0.1278,0.11009 -0.38056,-0.0697 -0.54222,0 -0.22862,0.0985 -0.3136,0.3687 -0.54222,0.46716 -0.16501,0.0711 -1.38245,0 -1.62664,0 -0.18074,0 -0.41442,0.11015 -0.54222,0 -0.1278,-0.11009 -0.1278,-0.35707 0,-0.46716 0.1278,-0.11015 0.41441,-0.11015 0.54222,0 0.1278,0.11009 0,0.31142 0,0.46716 0,0.21043 0.0825,1.25942 0,1.40162 -0.22862,0.3939 -0.85582,0.5404 -1.08443,0.9344 -0.37396,0.6444 0.65664,0.4178 -0.54222,0.9343 -0.16166,0.07 -0.36148,0 -0.54222,0 -0.36148,0.1558 -0.74816,0.2741 -1.08443,0.4673 -0.42536,0.2443 -0.6272,0.7374 -1.08444,0.9343 -0.16165,0.07 -0.36147,0 -0.54222,0 -0.32312,0 -3.66235,0.057 -3.79551,0 -0.16166,-0.07 0.1278,-0.357 0,-0.4672 -0.1278,-0.1101 -0.41442,0.1102 -0.54222,0 -0.16789,-0.1446 0.16789,-2.1912 0,-2.3359 -0.13047,-0.1125 -2.03839,0.1124 -2.16887,0 -0.1278,-0.1102 0.12781,-0.3571 0,-0.4672 -1.12186,-0.9667 0.0438,1.4772 -1.08443,-0.4672 -0.16166,-0.2786 0.2556,-0.71418 0,-0.93442 -0.1278,-0.11009 -0.41441,0.11015 -0.54221,0 -0.12781,-0.11009 0,-0.31142 0,-0.46716 0,-0.15574 0,-0.31148 0,-0.46722 0,-1.89676 -0.0742,-1.24166 1.08443,-3.73754 z"
       id="path3793-9"
       inkscape:connector-curvature="0" />
    <path
       style="fill:#ff0000;stroke:#000000;stroke-width:0.59390473px;stroke-linecap:butt;stroke-linejoin:miter;stroke-opacity:1"
       d="m 328.81551,968.67025 c 0.18074,-0.6229 0.26546,-1.2726 0.54221,-1.8688 0.0949,-0.2045 0.40044,-0.2839 0.54222,-0.4672 0.22418,-0.2897 0.31804,-0.6446 0.54222,-0.9344 0.15322,-0.198 1.4023,-1.3049 1.62665,-1.4015 0.16165,-0.07 0.36148,0 0.54222,0 0.2037,0 2.69755,-0.012 2.71108,0 0.28577,0.2462 0.25644,0.6881 0.54221,0.9343 0.28578,0.2463 0.74817,0.2741 1.08444,0.4672 0.21268,0.1222 0.3136,0.3687 0.54222,0.4672 0.16165,0.07 0.41441,-0.1101 0.54221,0 0.1278,0.1101 0,0.3115 0,0.4672 0,0.1716 0.0218,1.85 0,1.8688 -0.1278,0.1101 -0.41441,-0.1101 -0.54221,0 -0.1278,0.1101 0,0.3115 0,0.4672 0,0.1557 0,0.6229 0,0.4672 0,-0.3115 -0.16166,-0.6558 0,-0.9344 0.0808,-0.1393 0.38055,0.07 0.54221,0 0.45724,-0.197 0.6272,-0.7374 1.08444,-0.9344 0.0462,-0.02 2.12264,-0.02 2.16886,0 0.22862,0.099 0.36148,0.3115 0.54222,0.4672 0.36148,0.3115 0.80087,0.5679 1.08443,0.9344 0.10026,0.1296 -0.0808,0.3279 0,0.4672 0.11431,0.197 0.42791,0.2702 0.54222,0.4672 0.098,0.1689 0,2.011 0,2.336 0,0.1557 0,0.3114 0,0.4671 0,0.1558 0.1278,0.3571 0,0.4672 -0.1278,0.1101 -0.38056,-0.07 -0.54222,0 -0.22862,0.098 -0.3136,0.3687 -0.54222,0.4672 -0.16501,0.071 -1.38245,0 -1.62664,0 -0.18074,0 -0.41442,0.1102 -0.54222,0 -0.1278,-0.1101 -0.1278,-0.3571 0,-0.4672 0.1278,-0.1101 0.41441,-0.1101 0.54222,0 0.1278,0.1101 0,0.3115 0,0.4672 0,0.2104 0.0825,1.2594 0,1.4016 -0.22862,0.3939 -0.85582,0.5404 -1.08443,0.9344 -0.37396,0.6444 0.65664,0.4178 -0.54222,0.9343 -0.16166,0.07 -0.36148,0 -0.54222,0 -0.36148,0.1558 -0.74816,0.2741 -1.08443,0.4673 -0.42536,0.2443 -0.6272,0.7374 -1.08444,0.9343 -0.16165,0.07 -0.36147,0 -0.54222,0 -0.32312,0 -3.66235,0.057 -3.79551,0 -0.16166,-0.07 0.1278,-0.357 0,-0.4672 -0.1278,-0.1101 -0.41442,0.1102 -0.54222,0 -0.16789,-0.1446 0.16789,-2.1912 0,-2.3359 -0.13047,-0.1125 -2.03839,0.1124 -2.16887,0 -0.1278,-0.1102 0.12781,-0.3571 0,-0.4672 -1.12186,-0.9667 0.0438,1.4772 -1.08443,-0.4672 -0.16166,-0.2786 0.2556,-0.7142 0,-0.9344 -0.1278,-0.1101 -0.41441,0.1102 -0.54221,0 -0.12781,-0.1101 0,-0.3114 0,-0.4672 0,-0.1557 0,-0.3114 0,-0.4672 0,-1.8967 -0.0742,-1.2416 1.08443,-3.7375 z"
       id="path3793-9-1"
       inkscape:connector-curvature="0" />
  </g>
</svg>
