<?xml version="1.0" encoding="UTF-8" standalone="no"?>
<!-- Created with Inkscape (http://www.inkscape.org/) -->

<svg
   xmlns:dc="http://purl.org/dc/elements/1.1/"
   xmlns:cc="http://creativecommons.org/ns#"
   xmlns:rdf="http://www.w3.org/1999/02/22-rdf-syntax-ns#"
   xmlns:svg="http://www.w3.org/2000/svg"
   xmlns="http://www.w3.org/2000/svg"
   version="1.1"
   width="16.002602"
   height="16.002602"
   id="svg7384">
  <title
     id="title9167">Gnome Symbolic Icon Theme</title>
  <metadata
     id="metadata90">
    <rdf:RDF>
      <cc:Work
         rdf:about="">
        <dc:format>image/svg+xml</dc:format>
        <dc:type
           rdf:resource="http://purl.org/dc/dcmitype/StillImage" />
        <dc:title>Gnome Symbolic Icon Theme</dc:title>
      </cc:Work>
    </rdf:RDF>
  </metadata>
  <defs
     id="defs7386" />
  <g
     transform="translate(-441.9974,-462)"
     id="layer9"
     style="display:inline" />
  <g
     transform="translate(-441.9974,-462)"
     id="layer10" />
  <g
     transform="translate(-441.9974,-462)"
     id="layer11" />
  <g
     transform="translate(-441.9974,-462)"
     id="layer12" />
  <g
     transform="translate(-441.9974,-462)"
     id="layer13" />
  <g
     transform="translate(-441.9974,-462)"
     id="layer14" />
  <g
     transform="translate(-441.9974,-462)"
     id="layer15"
     style="display:inline" />
  <g
     transform="translate(-441.9974,-462)"
     id="g4953"
     style="display:inline">
    <path
       d="m 445.5,462 c -0.40386,0 -0.7953,0.0929 -1.15625,0.21875 L 446.25,464.125 c 0.39174,0.39174 0.39174,1.01451 0,1.40625 l -0.71875,0.71875 c -0.39174,0.39174 -1.01451,0.39174 -1.40625,0 l -1.90625,-1.90625 C 442.0929,464.7047 442,465.09614 442,465.5 c 0,1.933 1.567,3.5 3.5,3.5 0.40386,0 0.7953,-0.0929 1.15625,-0.21875 l 1.1875,1.1875 a 2.50025,2.50025 0 0 1 0.0625,0 L 450,467.875 448.78125,466.65625 C 448.9071,466.2953 449,465.90386 449,465.5 c 0,-1.933 -1.567,-3.5 -3.5,-3.5 z m 6.625,8 -2.09375,2.09375 a 2.50025,2.50025 0 0 1 0.0312,0.0937 l 1.15625,1.15625 C 451.0929,473.7047 451,474.09614 451,474.5 c 0,1.933 1.567,3.5 3.5,3.5 0.43838,0 0.86328,-0.10282 1.25,-0.25 l -2.03125,-2.03125 c -0.39174,-0.39174 -0.39174,-1.04576 0,-1.4375 l 0.6875,-0.6875 c 0.19587,-0.19587 0.46313,-0.3125 0.71875,-0.3125 0.25562,0 0.52288,0.11663 0.71875,0.3125 l 1.96875,1.96875 C 457.91854,475.22826 458,474.86934 458,474.5 c 0,-1.933 -1.567,-3.5 -3.5,-3.5 -0.40386,0 -0.7953,0.0929 -1.15625,0.21875 L 452.125,470 z"
       id="path3908"
       style="font-size:medium;font-style:normal;font-variant:normal;font-weight:normal;font-stretch:normal;text-indent:0;text-align:start;text-decoration:none;line-height:normal;letter-spacing:normal;word-spacing:normal;text-transform:none;direction:ltr;block-progression:tb;writing-mode:lr-tb;text-anchor:start;baseline-shift:baseline;color:#000000;fill:#bebebe;fill-opacity:1;fill-rule:nonzero;stroke:none;stroke-width:3;marker:none;visibility:visible;display:inline;overflow:visible;enable-background:accumulate;font-family:Sans;-inkscape-font-specification:Sans" />
    <path
       d="m 456,462 -1.5625,1.4375 c -0.45738,0.42079 -0.54125,1.15436 -0.28125,1.71875 l -5.96875,6 a 1.50015,1.50015 0 0 0 -0.0312,0 1.50015,1.50015 0 0 0 -0.8438,-0.15625 1.50015,1.50015 0 0 0 -0.875,0.4375 l -4,4 a 1.5026019,1.5026019 0 1 0 2.125,2.125 l 4,-4 a 1.50015,1.50015 0 0 0 0.3125,-1.75 l 5.96875,-5.96875 c 0.55902,0.25484 1.27928,0.15821 1.71875,-0.28125 L 458,464 l -2,-2 z"
       id="path3910"
       style="font-size:medium;font-style:normal;font-variant:normal;font-weight:normal;font-stretch:normal;text-indent:0;text-align:start;text-decoration:none;line-height:normal;letter-spacing:normal;word-spacing:normal;text-transform:none;direction:ltr;block-progression:tb;writing-mode:lr-tb;text-anchor:start;baseline-shift:baseline;color:#000000;fill:#bebebe;fill-opacity:1;fill-rule:nonzero;stroke:none;stroke-width:3;marker:none;visibility:visible;display:inline;overflow:visible;enable-background:accumulate;font-family:Sans;-inkscape-font-specification:Sans" />
  </g>
</svg>
