<?xml version="1.0" encoding="utf-8"?>
<!-- Generator: Adobe Illustrator 15.1.0, SVG Export Plug-In . SVG Version: 6.00 Build 0)  -->
<!DOCTYPE svg PUBLIC "-//W3C//DTD SVG 1.1//EN" "http://www.w3.org/Graphics/SVG/1.1/DTD/svg11.dtd">
<svg version="1.1"
	 id="svg2" inkscape:version="0.48.1 " sodipodi:docname="tango.svg" xmlns:dc="http://purl.org/dc/elements/1.1/" xmlns:cc="http://creativecommons.org/ns#" xmlns:rdf="http://www.w3.org/1999/02/22-rdf-syntax-ns#" xmlns:svg="http://www.w3.org/2000/svg" xmlns:sodipodi="http://sodipodi.sourceforge.net/DTD/sodipodi-0.dtd" xmlns:inkscape="http://www.inkscape.org/namespaces/inkscape"
	 xmlns="http://www.w3.org/2000/svg" xmlns:xlink="http://www.w3.org/1999/xlink" x="0px" y="0px" width="498.07px"
	 height="483.684px" viewBox="0 0 498.07 483.684" enable-background="new 0 0 498.07 483.684" xml:space="preserve">
<sodipodi:namedview  id="base" fit-margin-bottom="0" fit-margin-right="0" inkscape:window-y="-8" inkscape:window-x="54" inkscape:window-height="878" inkscape:window-width="1538" inkscape:current-layer="layer1" inkscape:document-units="px" inkscape:pageshadow="2" inkscape:pageopacity="0.0" inkscape:cy="222.14519" inkscape:cx="-26.145317" fit-margin-top="0" inkscape:zoom="1" borderopacity="1.0" bordercolor="#666666" showgrid="false" pagecolor="#ffffff" fit-margin-left="0" inkscape:window-maximized="1">
	</sodipodi:namedview>
<g id="layer1" transform="translate(-157.40772,-177.6544)" inkscape:groupmode="layer" inkscape:label="Layer 1">
	<path id="path3017" inkscape:connector-curvature="0" fill="#73D216" stroke="#4E9A06" stroke-width="2" d="M402.029,178.719
		c-77.771,0.371-154.3,38.98-199.654,102.244c-42.139,57.022-55.87,133.472-36.596,201.631
		c19.532,71.139,74.036,130.709,141.996,158.502c75.788,31.873,167.473,23.951,236.129-21.877
		c61.342-39.662,103.33-107.957,108.594-181.156c5.79-68.434-20.423-137.913-69.153-186.113
		C536.176,204.301,469.283,177.538,402.029,178.719z"/>
	<path id="path3017-5" inkscape:connector-curvature="0" fill="none" stroke="#8AE234" stroke-width="5" d="M402.093,182.714
		c-89.978,0.033-178.068,53.702-217.313,134.875c-33.843,68.636-31.198,154.395,8.793,219.922
		c38.845,65.855,110.469,110.908,186.51,117.65c71.945,7.313,146.46-17.498,198.01-68.322
		c49.856-48.418,77.408-119.439,70.195-189.055c-6.462-70.022-46.766-135.884-105.781-174.12
		C501.121,196.382,451.687,181.879,402.093,182.714z"/>
	
		<path id="path3017-1" sodipodi:nodetypes="ccsccccc" inkscape:connector-curvature="0" fill="#8AE234" stroke="#73D216" stroke-width="1.6767" d="
		M400.048,645.363c-68.005-0.299-134.922-31.332-174.581-82.184c-36.847-45.834-64.25-116.334-48.421-168.507
		s81.159,49.151,140.585,26.812c66.271-25.62,146.44,22.969,206.475,59.805c53.639,31.881,106.517-101.2,111.119-42.363
		c5.063,55.006-34.021,108.832-76.632,147.574C517.348,624.799,458.856,646.313,400.048,645.363L400.048,645.363z"/>
	<text transform="matrix(1.6542 0 0 1 262.7195 541.1808)" font-family="'MyriadPro-Regular'" font-size="341.9929">T</text>
</g>
</svg>
