<?xml version="1.0" encoding="UTF-8" standalone="no"?>
<!-- Created with Inkscape (http://www.inkscape.org/) -->

<!DOCTYPE svg PUBLIC "-//W3C//DTD SVG 1.1//EN" "http://www.w3.org/Graphics/SVG/1.1/DTD/svg11.dtd" [
	<!ENTITY ns_svg "http://www.w3.org/2000/svg">
	<!ENTITY ns_xlink "http://www.w3.org/1999/xlink">
]>

<svg
   xmlns:dc="http://purl.org/dc/elements/1.1/"
   xmlns:cc="http://creativecommons.org/ns#"
   xmlns:rdf="http://www.w3.org/1999/02/22-rdf-syntax-ns#"
   xmlns:svg="http://www.w3.org/2000/svg"
   xmlns="http://www.w3.org/2000/svg"
   xmlns:sodipodi="http://sodipodi.sourceforge.net/DTD/sodipodi-0.dtd"
   xmlns:inkscape="http://www.inkscape.org/namespaces/inkscape"
   width="498.07129"
   height="483.68356"
   id="svg2"
   version="1.1"
   inkscape:version="0.48.1 "
   sodipodi:docname="tango.svg">
  <defs
     id="defs4" />
  <sodipodi:namedview
     id="base"
     pagecolor="#ffffff"
     bordercolor="#666666"
     borderopacity="1.0"
     inkscape:pageopacity="0.0"
     inkscape:pageshadow="2"
     inkscape:zoom="1"
     inkscape:cx="-26.145317"
     inkscape:cy="222.14519"
     inkscape:document-units="px"
     inkscape:current-layer="layer1"
     showgrid="false"
     inkscape:window-width="1538"
     inkscape:window-height="878"
     inkscape:window-x="54"
     inkscape:window-y="-8"
     inkscape:window-maximized="1"
     fit-margin-top="0"
     fit-margin-left="0"
     fit-margin-right="0"
     fit-margin-bottom="0" />
  <metadata
     id="metadata7">
    <rdf:RDF>
      <cc:Work
         rdf:about="">
        <dc:format>image/svg+xml</dc:format>
        <dc:type
           rdf:resource="http://purl.org/dc/dcmitype/StillImage" />
        <dc:title></dc:title>
      </cc:Work>
    </rdf:RDF>
  </metadata>
  <g
     inkscape:label="Layer 1"
     inkscape:groupmode="layer"
     id="layer1"
     style="display:inline"
     transform="translate(-157.40772,-177.6544)">
    <path
       style="fill:#73d216;fill-opacity:1;stroke:#4e9a06;stroke-width:2;stroke-miterlimit:4;stroke-opacity:1;stroke-dasharray:none"
       d="m 403.21735,178.6919 c -77.77132,0.37115 -154.29957,38.98024 -199.65386,102.2439 -42.13872,57.02188 -55.87021,133.47206 -36.59614,201.6311 19.53206,71.13851 74.03612,130.70927 141.99672,158.50148 75.7877,31.87389 167.47215,23.95122 236.12828,-21.87648 C 606.43429,579.52945 648.42258,511.23425 653.6861,438.03565 659.47638,369.6023 633.26394,300.12279 584.53272,251.92318 537.36453,204.27438 470.4718,177.51088 403.21735,178.6919 z"
       id="path3017"
       inkscape:connector-curvature="0" />
    <path
       style="fill:none;stroke:#8ae234;stroke-width:5;stroke-miterlimit:4;stroke-opacity:1;stroke-dasharray:none"
       d="m 403.28125,182.6875 c -89.9781,0.0333 -178.06846,53.70217 -217.3125,134.875 -33.84326,68.63573 -31.19802,154.39435 8.79306,219.9216 38.84479,65.85532 110.4689,110.90833 186.50969,117.65063 71.94486,7.31356 146.45999,-17.49719 198.00975,-68.32223 49.85617,-48.41759 77.40842,-119.43957 70.19572,-189.05445 C 643.01504,327.73559 602.7105,261.87377 543.69569,223.63809 502.30912,196.35576 452.87571,181.85172 403.28125,182.6875 z"
       id="path3017-5"
       inkscape:connector-curvature="0" />
    <path
       style="fill:#8ae234;fill-opacity:1;stroke:#73d216;stroke-width:1.67671955;stroke-miterlimit:4;stroke-opacity:1;stroke-dasharray:none;display:inline"
       d="M 401.23606,645.33577 C 333.23147,645.03744 266.31384,614.00388 226.65525,563.15324 189.80843,517.31968 162.40535,446.81908 178.2341,394.64619 c 15.82875,-52.17291 81.15933,49.15031 140.58525,26.81124 66.27008,-25.61989 146.44055,22.96965 206.47466,59.80546 53.63845,31.88024 106.51618,-101.20072 111.11869,-42.36448 5.06312,55.00598 -34.01993,108.83254 -76.63135,147.57486 -41.24468,38.29958 -99.73685,59.81179 -158.54529,58.8625 z"
       id="path3017-1"
       inkscape:connector-curvature="0"
       sodipodi:nodetypes="ccsccccc" />
    <text
       xml:space="preserve"
       style="font-size:439.85971069px;font-style:normal;font-weight:normal;line-height:125%;letter-spacing:0px;word-spacing:0px;fill:#000000;fill-opacity:1;stroke:none;font-family:Sans"
       x="177.19919"
       y="696.01392"
       id="text3853"
       sodipodi:linespacing="125%"
       transform="scale(1.2861663,0.77750444)"><tspan
         sodipodi:role="line"
         id="tspan3855"
         x="177.19919"
         y="696.01392">T</tspan></text>
  </g>
</svg>
