<?xml version="1.0" encoding="utf-8"?>
<!-- Generator: Adobe Illustrator 15.1.0, SVG Export Plug-In . SVG Version: 6.00 Build 0)  -->
<!DOCTYPE svg PUBLIC "-//W3C//DTD SVG 1.1//EN" "http://www.w3.org/Graphics/SVG/1.1/DTD/svg11.dtd">
<svg version="1.1" id="Layer_1" xmlns="http://www.w3.org/2000/svg" xmlns:xlink="http://www.w3.org/1999/xlink" x="0px" y="0px"
	 width="24.5px" height="31.7px" viewBox="1 0 24.5 31.7" enable-background="new 1 0 24.5 31.7" xml:space="preserve">
<title>Redpad lock</title>
<title>Layer 1</title>
<g>
	<path id="rect2723" fill="#A7A873" stroke="#050505" d="M13.322,1C8.577,1,4.757,4.811,4.757,9.543v9.493h2.379V9.543
		c0-3.418,2.759-6.17,6.186-6.17s6.186,2.751,6.186,6.17v9.493h2.379V9.543C21.886,4.811,18.066,1,13.322,1z"/>
	<path fill="#EAEA1B" stroke="#000000" d="M24.643,28.619c0,1.702-1.667,3.082-3.722,3.082H5.722C3.667,31.7,2,30.32,2,28.619V17.32
		c0-1.702,1.667-3.081,3.722-3.081h15.198c2.056,0,3.722,1.379,3.722,3.081V28.619z"/>
</g>
</svg>
