<?xml version="1.0" encoding="utf-8"?>
<!-- Generator: Adobe Illustrator 15.1.0, SVG Export Plug-In . SVG Version: 6.00 Build 0)  -->
<!DOCTYPE svg PUBLIC "-//W3C//DTD SVG 1.1//EN" "http://www.w3.org/Graphics/SVG/1.1/DTD/svg11.dtd">
<svg version="1.1"
	 id="svg2" inkscape:output_extension="org.inkscape.output.svg.inkscape" sodipodi:docname="database-outline.svg" sodipodi:version="0.32" inkscape:version="0.45+devel+devel" inkscape:export-filename="I:\Documents and Settings\Eric\Bureau\database.png" inkscape:export-xdpi="51.25" inkscape:export-ydpi="51.25" xmlns:dc="http://purl.org/dc/elements/1.1/" xmlns:inkscape="http://www.inkscape.org/namespaces/inkscape" xmlns:cc="http://creativecommons.org/ns#" xmlns:sodipodi="http://sodipodi.sourceforge.net/DTD/sodipodi-0.dtd" xmlns:svg="http://www.w3.org/2000/svg" xmlns:rdf="http://www.w3.org/1999/02/22-rdf-syntax-ns#"
	 xmlns="http://www.w3.org/2000/svg" xmlns:xlink="http://www.w3.org/1999/xlink" x="0px" y="0px" width="57.073px"
	 height="84.51px" viewBox="0 0 57.073 84.51" enable-background="new 0 0 57.073 84.51" xml:space="preserve">
<sodipodi:namedview  id="base" inkscape:object-nodes="false" inkscape:snap-global="false" gridtolerance="10" inkscape:window-x="1" inkscape:current-layer="layer1" inkscape:window-width="1270" inkscape:window-y="1" inkscape:document-units="px" inkscape:pageopacity="0.0" inkscape:pageshadow="2" inkscape:window-height="954" bordercolor="#666666" borderopacity="1.0" inkscape:cy="60.065903" inkscape:cx="21.324202" inkscape:zoom="2.206709" showgrid="true" pagecolor="#ffffff" inkscape:snap-intersection-grid-guide="false">
	<inkscape:grid  type="axonomgrid" units="mm" visible="true" enabled="true" id="grid2388"></inkscape:grid>
</sodipodi:namedview>
<path id="rect3196" fill="#FFFFFF" stroke="#000000" stroke-width="4" stroke-linecap="round" stroke-linejoin="round" d="M28.453,2
	C13.854,2,2,8.672,2,16.891v50.563c0,8.219,11.854,14.891,26.453,14.891s26.453-6.672,26.453-14.891V16.891h-0.016
	C54.891,8.672,43.052,2,28.453,2z"/>
<path id="path2527" sodipodi:ry="17.716536" sodipodi:cx="184.11563" sodipodi:type="arc" sodipodi:rx="30.68594" sodipodi:cy="698.03149" fill="#FFFFFF" stroke="#000000" stroke-width="2" stroke-linecap="round" stroke-linejoin="round" d="
	M53.988,16.891c0,7.938-11.43,14.373-25.529,14.373S2.931,24.828,2.931,16.891l0,0c0-7.938,11.43-14.373,25.529-14.373
	S53.988,8.953,53.988,16.891z"/>
<path id="path2527_1_" sodipodi:ry="17.716536" sodipodi:cx="184.11563" sodipodi:type="arc" sodipodi:rx="30.68594" sodipodi:cy="698.03149" fill="#E6E6E6" d="
	M47.257,16.891c0,5.821-8.381,10.54-18.72,10.54c-10.339,0-18.72-4.719-18.72-10.54l0,0c0-5.821,8.381-10.54,18.72-10.54
	C38.876,6.351,47.257,11.07,47.257,16.891z"/>
</svg>
