<?xml version="1.0" encoding="utf-8"?>
<!-- Generator: Adobe Illustrator 15.1.0, SVG Export Plug-In . SVG Version: 6.00 Build 0)  -->
<!DOCTYPE svg PUBLIC "-//W3C//DTD SVG 1.1//EN" "http://www.w3.org/Graphics/SVG/1.1/DTD/svg11.dtd">
<svg version="1.1" id="Layer_1" xmlns="http://www.w3.org/2000/svg" xmlns:xlink="http://www.w3.org/1999/xlink" x="0px" y="0px"
	 width="48.75px" height="32.375px" viewBox="0 0 48.75 32.375" enable-background="new 0 0 48.75 32.375" xml:space="preserve">
<g>
	
		<rect x="1" y="11.719" fill="#E6E7E8" stroke="#414042" stroke-linecap="round" stroke-linejoin="round" stroke-miterlimit="10" width="46.722" height="19.781"/>
	<polygon fill="#F1F2F2" stroke="#414042" stroke-linecap="round" stroke-linejoin="round" stroke-miterlimit="10" points="
		40.561,1 10.065,1 1,11.32 47.722,11.32 	"/>
	<g>
		<rect x="39.667" y="16.392" fill="#8DC63F" stroke="#6D6E71" stroke-miterlimit="10" width="3.673" height="3.673"/>
		<rect x="39.667" y="22.863" fill="#8DC63F" stroke="#6D6E71" stroke-miterlimit="10" width="3.673" height="3.674"/>
	</g>
	<g>
		<rect x="33" y="16.392" fill="#8DC63F" stroke="#6D6E71" stroke-miterlimit="10" width="3.674" height="3.673"/>
		<rect x="33" y="22.863" fill="#8DC63F" stroke="#6D6E71" stroke-miterlimit="10" width="3.674" height="3.674"/>
	</g>
	<g>
		<rect x="25.916" y="16.392" fill="#8DC63F" stroke="#6D6E71" stroke-miterlimit="10" width="3.674" height="3.673"/>
		<rect x="25.916" y="22.863" fill="#8DC63F" stroke="#6D6E71" stroke-miterlimit="10" width="3.674" height="3.674"/>
	</g>
	<g>
		<rect x="18.75" y="16.392" fill="#8DC63F" stroke="#6D6E71" stroke-miterlimit="10" width="3.674" height="3.673"/>
		<rect x="18.75" y="22.863" fill="#8DC63F" stroke="#6D6E71" stroke-miterlimit="10" width="3.674" height="3.674"/>
	</g>
	<g>
		<rect x="11.5" y="16.392" fill="#8DC63F" stroke="#6D6E71" stroke-miterlimit="10" width="3.674" height="3.673"/>
		<rect x="11.5" y="22.863" fill="#8DC63F" stroke="#6D6E71" stroke-miterlimit="10" width="3.674" height="3.674"/>
	</g>
	<g>
		<rect x="4.25" y="16.392" fill="#8DC63F" stroke="#6D6E71" stroke-miterlimit="10" width="3.674" height="3.673"/>
		<rect x="4.25" y="22.863" fill="#8DC63F" stroke="#6D6E71" stroke-miterlimit="10" width="3.674" height="3.674"/>
	</g>
</g>
</svg>
