<?xml version="1.0" encoding="utf-8"?>
<!-- Generator: Adobe Illustrator 15.1.0, SVG Export Plug-In . SVG Version: 6.00 Build 0)  -->
<!DOCTYPE svg PUBLIC "-//W3C//DTD SVG 1.1//EN" "http://www.w3.org/Graphics/SVG/1.1/DTD/svg11.dtd">
<svg version="1.1" id="Layer_1" xmlns="http://www.w3.org/2000/svg" xmlns:xlink="http://www.w3.org/1999/xlink" x="0px" y="0px"
	 width="100px" height="100px" viewBox="0 0 100 100" enable-background="new 0 0 100 100" xml:space="preserve">
<g>
	<radialGradient id="SVGID_1_" cx="47.0742" cy="49.417" r="42.0474" gradientUnits="userSpaceOnUse">
		<stop  offset="0" style="stop-color:#00AEEF;stop-opacity:0.5"/>
		<stop  offset="1" style="stop-color:#00AEEF;stop-opacity:0.1"/>
	</radialGradient>
	<path fill="url(#SVGID_1_)" d="M16.049,25.87c-0.14-4.184,2.51-7.531,6.555-8.787c4.323-1.395,7.392,0.279,10.6,2.65
		c1.674-2.929,2.79-6.694,5.718-8.647c3.347-2.371,8.647-1.255,12.413-1.255c4.881,0,17.015,0.418,16.597,7.95
		c4.045,0.976,11.854-1.116,14.923,3.208c2.511,3.487-0.976,6.416-3.626,7.811c2.79,1.534,5.858,1.673,7.95,4.463
		c1.674,2.092,2.929,5.16,3.486,7.811c0.977,4.323,0.697,9.205-1.255,13.25c-1.395,2.929-2.371,2.929-5.3,3.348
		c0.418,2.649,3.068,4.602,3.626,7.531c0.419,2.929,0.279,6.137-1.395,8.786c-1.953,3.208-7.392,8.647-11.437,8.508
		c-3.208-0.279-5.997-3.208-9.484-3.486c-3.347-0.279-4.323,3.068-6.555,5.16c-2.789,2.511-7.253,4.463-10.879,5.021
		c-5.16,0.697-9.763-3.626-13.947-6.276c-1.953-1.255-4.184-2.929-5.021-5.021c-0.558-1.395-0.279-3.068-0.558-4.463
		c-4.323,1.115-7.252,2.649-11.715,0.977c-5.3-2.231-9.205-5.579-11.297-11.019c-1.674-4.184-4.324-11.437-0.697-15.202
		c1.673-1.674,3.905-2.65,6.136-3.068c0.418-0.14,1.813,0.14,1.953-0.14c0.837-0.837-0.697-3.068-1.116-3.905
		c-1.673-3.766-3.487-8.369-2.65-12.553c0.697-3.486,3.208-3.626,5.998-2.51"/>
	<g>
		<path d="M17.026,25.793c0.142-3.529,1.502-5.922,4.708-7.658c4.135-2.238,7.623-0.053,10.724,2.149
			c0.507,0.36,1.388,0.076,1.668-0.447c2.424-4.527,3.996-9.055,10.021-9.555c2.985-0.248,6.191,0.192,9.202,0.28
			c4.909,0.143,13.48,0.832,13.605,7.294c0.008,0.394,0.281,0.551,0.641,0.615c1.871,0.337,3.739,0.312,5.635,0.308
			c1.884-0.004,3.63,0.078,5.473,0.495c4.988,1.128,3.919,6.746,0.102,8.966c-0.529,0.308-0.808,0.876-0.135,1.201
			c1.896,0.916,3.904,1.533,5.761,2.536c2.765,1.493,4.044,5.227,4.934,8c1.644,5.123,1.793,16-5.164,16.996
			c-0.419,0.061-1.226,0.374-1.055,0.955c0.806,2.739,2.771,4.788,3.626,7.531c1.396,4.486-1.286,8.811-4.169,11.913
			c-1.419,1.527-3.085,2.743-4.902,3.744c-3.084,1.699-6.271-0.752-8.874-1.987c-1.845-0.875-3.793-1.042-5.701-0.377
			c-1.223,0.427-2.108,1.552-2.892,2.514c-2.995,3.678-6.429,5.746-11.025,7c-5.049,1.378-9.481-2.523-13.269-5.146
			c-1.186-0.821-2.376-1.588-3.522-2.467c-2.48-1.902-2.708-4.631-2.989-7.483c-0.047-0.476-0.83-0.477-1.14-0.392
			c-4.802,1.325-8.518,2.319-13.327-0.138c-2.732-1.396-4.939-3.508-6.724-5.974c-3.28-4.533-6.8-14.636-1.78-18.973
			c2.397-2.072,4.474-1.046,6.809-2.159c0.489-0.233,0.885-0.929,0.787-1.464c-0.545-2.958-9.506-20.774,0.461-17.419
			c0.812,0.273,2.275-0.896,1.119-1.285c-7.201-2.424-8.433,3.946-7.14,9.845c0.455,2.075,1.32,4.422,2.347,6.283
			c0.695,1.259,2.072,2.82,0.137,2.926c-2.939,0.161-6.009,2.185-7.76,4.416c-4.018,5.116,0.853,15.364,4.028,19.752
			c2.196,3.034,5.601,4.96,8.941,6.46c4.047,1.817,8.488,0.124,12.449-0.969c-0.38-0.131-0.76-0.261-1.14-0.392
			c0.422,4.279,1.101,6.284,4.607,8.973c3.399,2.607,7.2,5.241,11.225,6.757c6.498,2.447,14.745-2.599,18.518-7.598
			c3.471-4.601,9.609,1.619,14.009,1.294c2.699-0.2,5.558-2.457,7.391-4.243c2.771-2.7,4.819-5.386,5.558-9.249
			c0.976-5.107-2.406-7.729-3.726-12.211c-0.352,0.318-0.703,0.637-1.055,0.955c7.054-1.011,8.328-7.531,8.111-14.045
			c-0.122-3.683-1.439-7.212-3.269-10.36c-2.021-3.48-5.715-4.182-9.076-5.804c-0.045,0.4-0.09,0.8-0.135,1.201
			c5.269-3.064,7.185-8.917,0.168-11.368c-3.299-1.152-7.226-0.426-10.631-0.735c0.243,0.022-2.6-4.758-3.288-5.27
			c-4.896-3.638-12.679-2.707-18.378-3.047c-2.972-0.178-6.766-0.255-9.24,1.718c-2.985,2.381-4.24,5.682-6.002,8.973
			c0.556-0.149,1.112-0.298,1.668-0.447c-3.519-2.499-7.452-4.305-11.771-2.656c-4.294,1.639-6.919,4.741-7.108,9.421
			C15.031,26.945,16.992,26.651,17.026,25.793L17.026,25.793z"/>
	</g>
</g>
</svg>
